<svg version="1.1" xmlns="http://www.w3.org/2000/svg" xmlns:xlink="http://www.w3.org/1999/xlink" width="800px" height="800px" viewBox="0,0,256,256"><g fill="#20c997" fill-rule="nonzero" stroke="none" stroke-width="1" stroke-linecap="butt" stroke-linejoin="miter" stroke-miterlimit="10" stroke-dasharray="" stroke-dashoffset="0" font-family="none" font-weight="none" font-size="none" text-anchor="none" style="mix-blend-mode: normal"><g transform="translate(-0.00061,-0.00061)"><g><g transform="scale(0.85046,0.85046)"><g><g><path d="M296.075,128.44h-16.965v-22.88c0,-2.665 -2.21,-4.875 -4.875,-4.875h-27.495v-22.945c0,-2.665 -2.21,-4.875 -4.875,-4.875h-32.37c-2.665,0 -4.875,2.21 -4.875,4.875v50.7h-109.135v-50.7c0,-2.665 -2.21,-4.875 -4.875,-4.875h-32.37c-2.665,0 -4.875,2.21 -4.875,4.875v22.88h-27.495c-2.665,0 -4.875,2.21 -4.875,4.875v22.88h-16.12c-2.665,0 -4.875,2.21 -4.875,4.875v33.67c0,2.665 2.21,4.875 4.875,4.875h16.185v23.725c0,2.665 2.21,4.875 4.875,4.875h27.495v22.88c0,2.665 2.21,4.875 4.875,4.875h32.37c2.665,0 4.875,-2.21 4.875,-4.875v-51.545h109.135v51.545c0,2.665 2.21,4.875 4.875,4.875h32.37c2.665,0 4.875,-2.21 4.875,-4.875v-22.88h27.495c2.665,0 4.875,-2.21 4.875,-4.875v-23.725h16.965c2.665,0 4.875,-2.21 4.875,-4.875v-33.67c-0.065,-2.665 -2.275,-4.81 -4.94,-4.81zM21.06,162.11h-11.31v-0.065v-23.855h11.31zM53.43,190.71h-22.62v-80.275h22.62zM85.735,218.465h-22.62v-135.85h22.62zM204.62,162.11h-109.135v-0.065v-23.855h109.135zM236.99,218.465h-22.62v-135.85h22.62zM269.36,190.71h-22.62v-80.275h22.62zM291.2,162.045h-12.09v-23.855h12.09z"></path></g></g></g></g></g></g></svg>