<svg version="1.1" xmlns="http://www.w3.org/2000/svg" xmlns:xlink="http://www.w3.org/1999/xlink" width="1024px" height="1024px" viewBox="0,0,256,256"><g fill="#20c997" fill-rule="nonzero" stroke="none" stroke-width="1" stroke-linecap="butt" stroke-linejoin="miter" stroke-miterlimit="10" stroke-dasharray="" stroke-dashoffset="0" font-family="none" font-weight="none" font-size="none" text-anchor="none" style="mix-blend-mode: normal"><g transform="translate(-1.08,0.01578) scale(0.25,0.25)"><path d="M193.92,982.72c-2.11015,-0.03006 -4.12296,-0.89269 -5.6,-2.4l-140.32,-140.48c-1.5145,-1.50213 -2.36639,-3.5469 -2.36639,-5.68c0,-2.1331 0.85189,-4.17787 2.36639,-5.68l784.8,-784.96c1.50213,-1.5145 3.5469,-2.36639 5.68,-2.36639c2.1331,0 4.17787,0.85189 5.68,2.36639l140.48,140.48c1.5145,1.50213 2.36639,3.5469 2.36639,5.68c0,2.1331 -0.85189,4.17787 -2.36639,5.68l-784.96,784.96c-1.51599,1.54669 -3.59429,2.41265 -5.76,2.4zM64,834.24l129.12,129.12l774.56,-773.6l-129.12,-129.28z"></path><path d="M119.36,861.12c-2.11015,-0.03006 -4.12296,-0.89269 -5.6,-2.4l-40.32,-40.32c-3.13698,-3.13698 -3.13698,-8.22302 0,-11.36c3.13698,-3.13698 8.22302,-3.13698 11.36,0l40.32,40.96c2.24096,2.2856 2.9038,5.68697 1.68506,8.64679c-1.21875,2.95982 -4.08445,4.90825 -7.28506,4.95321zM145.76,834.72c-2.15735,-0.11336 -4.17716,-1.09441 -5.6,-2.72l-40.32,-40c-3.13698,-3.13698 -3.13698,-8.22302 0,-11.36c3.13698,-3.13698 8.22302,-3.13698 11.36,0l40.32,40.32c2.24096,2.2856 2.9038,5.68697 1.68506,8.64679c-1.21875,2.95982 -4.08445,4.90825 -7.28506,4.95321zM172.16,808.32c-2.11015,-0.03006 -4.12296,-0.89269 -5.6,-2.4l-40.32,-40.32c-3.13698,-3.13698 -3.13698,-8.22302 0,-11.36c3.13698,-3.13698 8.22302,-3.13698 11.36,0l40.32,40.32c2.24096,2.2856 2.9038,5.68697 1.68506,8.64679c-1.21875,2.95982 -4.08445,4.90825 -7.28506,4.95321zM198.56,781.92c-2.11015,-0.03006 -4.12296,-0.89269 -5.6,-2.4l-40.32,-40.32c-3.13698,-3.13698 -3.13698,-8.22302 0,-11.36c3.13698,-3.13698 8.22302,-3.13698 11.36,0l40.32,40.16c2.24096,2.2856 2.9038,5.68697 1.68506,8.64679c-1.21875,2.95982 -4.08445,4.90825 -7.28506,4.95321zM254.4,784.96c-2.11015,-0.03006 -4.12296,-0.89269 -5.6,-2.4l-69.76,-69.76c-3.13698,-3.13698 -3.13698,-8.22302 0,-11.36c3.13698,-3.13698 8.22302,-3.13698 11.36,0l69.76,69.76c2.24096,2.2856 2.9038,5.68697 1.68506,8.64679c-1.21875,2.95982 -4.08445,4.90825 -7.28506,4.95321zM250.88,729.6c-2.11015,-0.03006 -4.12296,-0.89269 -5.6,-2.4l-40.32,-40.32c-3.13698,-3.13698 -3.13698,-8.22302 0,-11.36c3.13698,-3.13698 8.22302,-3.13698 11.36,0l39.68,40.32c2.24096,2.2856 2.9038,5.68697 1.68506,8.64679c-1.21875,2.95982 -4.08445,4.90825 -7.28506,4.95321zM277.28,703.2c-1.99824,-0.11139 -3.88216,-0.96772 -5.28,-2.4l-40.32,-40.32c-3.13698,-3.13698 -3.13698,-8.22302 0,-11.36c3.13698,-3.13698 8.22302,-3.13698 11.36,0l40.32,40.32c2.24096,2.2856 2.9038,5.68697 1.68506,8.64679c-1.21875,2.95982 -4.08445,4.90825 -7.28506,4.95321zM304,676.8c-2.11015,-0.03006 -4.12296,-0.89269 -5.6,-2.4l-40.32,-40.32c-3.13698,-3.13698 -3.13698,-8.22302 0,-11.36c3.13698,-3.13698 8.22302,-3.13698 11.36,0l40.32,40.32c2.24096,2.2856 2.9038,5.68697 1.68506,8.64679c-1.21875,2.95982 -4.08445,4.90825 -7.28506,4.95321zM330.08,650.4c-2.11015,-0.03006 -4.12296,-0.89269 -5.6,-2.4l-40.32,-40c-3.13698,-3.13698 -3.13698,-8.22302 0,-11.36c3.13698,-3.13698 8.22302,-3.13698 11.36,0l40.48,40c2.24096,2.2856 2.9038,5.68697 1.68506,8.64679c-1.21875,2.95982 -4.08445,4.90825 -7.28506,4.95321zM385.92,653.44c-2.11015,-0.03006 -4.12296,-0.89269 -5.6,-2.4l-69.76,-69.76c-3.13698,-3.13698 -3.13698,-8.22302 0,-11.36c3.13698,-3.13698 8.22302,-3.13698 11.36,0l69.76,70.08c2.24096,2.2856 2.9038,5.68697 1.68506,8.64679c-1.21875,2.95982 -4.08445,4.90825 -7.28506,4.95321zM382.4,598.08c-2.11015,-0.03006 -4.12296,-0.89269 -5.6,-2.4l-40.8,-40.32c-3.13698,-3.13698 -3.13698,-8.22302 0,-11.36c3.13698,-3.13698 8.22302,-3.13698 11.36,0l40.32,40.32c2.24096,2.2856 2.9038,5.68697 1.68506,8.64679c-1.21875,2.95982 -4.08445,4.90825 -7.28506,4.95321zM408.8,571.68c-2.11015,-0.03006 -4.12296,-0.89269 -5.6,-2.4l-40.32,-40.32c-3.13698,-3.13698 -3.13698,-8.22302 0,-11.36c3.13698,-3.13698 8.22302,-3.13698 11.36,0l40.32,40.32c2.24096,2.2856 2.9038,5.68697 1.68506,8.64679c-1.21875,2.95982 -4.08445,4.90825 -7.28506,4.95321zM435.2,545.28c-2.11015,-0.03006 -4.12296,-0.89269 -5.6,-2.4l-40.32,-40.32c-2.10454,-3.10378 -1.7707,-7.25288 0.80302,-9.98025c2.57371,-2.72737 6.69651,-3.30097 9.91698,-1.37975l40.32,40.32c2.24096,2.2856 2.9038,5.68697 1.68506,8.64679c-1.21875,2.95982 -4.08445,4.90825 -7.28506,4.95321zM461.6,518.88c-2.11015,-0.03006 -4.12296,-0.89269 -5.6,-2.4l-40,-40.32c-3.13698,-3.13698 -3.13698,-8.22302 0,-11.36c3.13698,-3.13698 8.22302,-3.13698 11.36,0l40.32,40.32c2.24096,2.2856 2.9038,5.68697 1.68506,8.64679c-1.21875,2.95982 -4.08445,4.90825 -7.28506,4.95321zM517.44,521.92c-2.11015,-0.03006 -4.12296,-0.89269 -5.6,-2.4l-69.76,-69.76c-3.13698,-3.13698 -3.13698,-8.22302 0,-11.36c3.13698,-3.13698 8.22302,-3.13698 11.36,0l69.76,69.76c2.24096,2.2856 2.9038,5.68697 1.68506,8.64679c-1.21875,2.95982 -4.08445,4.90825 -7.28506,4.95321zM513.92,466.56c-2.11015,-0.03006 -4.12296,-0.89269 -5.6,-2.4l-40.32,-40.32c-3.13698,-3.13698 -3.13698,-8.22302 0,-11.36c3.13698,-3.13698 8.22302,-3.13698 11.36,0l40.32,40.32c2.24096,2.2856 2.9038,5.68697 1.68506,8.64679c-1.21875,2.95982 -4.08445,4.90825 -7.28506,4.95321zM540.32,440.16c-2.11015,-0.03006 -4.12296,-0.89269 -5.6,-2.4l-40.32,-40.32c-3.13698,-3.13698 -3.13698,-8.22302 0,-11.36c3.13698,-3.13698 8.22302,-3.13698 11.36,0l40.32,40.32c2.24096,2.2856 2.9038,5.68697 1.68506,8.64679c-1.21875,2.95982 -4.08445,4.90825 -7.28506,4.95321zM566.72,413.76c-2.11015,-0.03006 -4.12296,-0.89269 -5.6,-2.4l-40.32,-40.32c-3.13698,-3.13698 -3.13698,-8.22302 0,-11.36c3.13698,-3.13698 8.22302,-3.13698 11.36,0l40.32,40.32c2.24096,2.2856 2.9038,5.68697 1.68506,8.64679c-1.21875,2.95982 -4.08445,4.90825 -7.28506,4.95321zM593.12,387.36c-2.11015,-0.03006 -4.12296,-0.89269 -5.6,-2.4l-40.32,-40.32c-3.13698,-3.13698 -3.13698,-8.22302 0,-11.36c3.13698,-3.13698 8.22302,-3.13698 11.36,0l40.32,40.32c2.24096,2.2856 2.9038,5.68697 1.68506,8.64679c-1.21875,2.95982 -4.08445,4.90825 -7.28506,4.95321zM648.96,390.4c-2.11015,-0.03006 -4.12296,-0.89269 -5.6,-2.4l-69.76,-69.76c-3.13698,-3.13698 -3.13698,-8.22302 0,-11.36c3.13698,-3.13698 8.22302,-3.13698 11.36,0l69.76,69.76c2.24096,2.2856 2.9038,5.68697 1.68506,8.64679c-1.21875,2.95982 -4.08445,4.90825 -7.28506,4.95321zM645.44,335.04c-2.11015,-0.03006 -4.12296,-0.89269 -5.6,-2.4l-40.32,-40.32c-3.13698,-3.13698 -3.13698,-8.22302 0,-11.36c3.13698,-3.13698 8.22302,-3.13698 11.36,0l40.32,40.32c2.24096,2.2856 2.9038,5.68697 1.68506,8.64679c-1.21875,2.95982 -4.08445,4.90825 -7.28506,4.95321zM672,308.64c-2.11015,-0.03006 -4.12296,-0.89269 -5.6,-2.4l-40.32,-40.32c-3.13698,-3.13698 -3.13698,-8.22302 0,-11.36c3.13698,-3.13698 8.22302,-3.13698 11.36,0l40.32,40.32c2.24096,2.2856 2.9038,5.68697 1.68506,8.64679c-1.21875,2.95982 -4.08445,4.90825 -7.28506,4.95321zM698.24,282.24c-2.11015,-0.03006 -4.12296,-0.89269 -5.6,-2.4l-40.32,-39.84c-3.13698,-3.13698 -3.13698,-8.22302 0,-11.36c3.13698,-3.13698 8.22302,-3.13698 11.36,0l40.32,39.84c2.24096,2.2856 2.9038,5.68697 1.68506,8.64679c-1.21875,2.95982 -4.08445,4.90825 -7.28506,4.95321zM724.64,256c-2.11015,-0.03006 -4.12296,-0.89269 -5.6,-2.4l-40.32,-40.32c-3.13698,-3.13698 -3.13698,-8.22302 0,-11.36c3.13698,-3.13698 8.22302,-3.13698 11.36,0l40.32,40.32c2.24096,2.2856 2.9038,5.68697 1.68506,8.64679c-1.21875,2.95982 -4.08445,4.90825 -7.28506,4.95321zM780.48,258.88c-2.11015,-0.03006 -4.12296,-0.89269 -5.6,-2.4l-69.76,-69.76c-3.13698,-3.13698 -3.13698,-8.22302 0,-11.36c3.13698,-3.13698 8.22302,-3.13698 11.36,0l69.76,69.76c2.24096,2.2856 2.9038,5.68697 1.68506,8.64679c-1.21875,2.95982 -4.08445,4.90825 -7.28506,4.95321zM776.96,203.52c-2.11015,-0.03006 -4.12296,-0.89269 -5.6,-2.4l-40.32,-41.12c-3.13698,-3.13698 -3.13698,-8.22302 0,-11.36c3.13698,-3.13698 8.22302,-3.13698 11.36,0l40.32,40.32c2.24096,2.2856 2.9038,5.68697 1.68506,8.64679c-1.21875,2.95982 -4.08445,4.90825 -7.28506,4.95321zM803.36,177.12c-2.11015,-0.03006 -4.12296,-0.89269 -5.6,-2.4l-40.32,-40.32c-1.98758,-3.07525 -1.63358,-7.10738 0.85943,-9.78926c2.49302,-2.68188 6.48862,-3.32886 9.70057,-1.57074l40.32,40.32c2.24096,2.2856 2.9038,5.68697 1.68506,8.64679c-1.21875,2.95982 -4.08445,4.90825 -7.28506,4.95321zM829.76,150.72c-2.11015,-0.03006 -4.12296,-0.89269 -5.6,-2.4l-40.16,-40.32c-3.31371,-3.04861 -3.52861,-8.20629 -0.48,-11.52c3.04861,-3.31371 8.20629,-3.52861 11.52,-0.48l40.32,40.32c2.24096,2.2856 2.9038,5.68697 1.68506,8.64679c-1.21875,2.95982 -4.08445,4.90825 -7.28506,4.95321zM856.16,124.32c-2.11015,-0.03006 -4.12296,-0.89269 -5.6,-2.4l-40.32,-40.32c-3.13698,-3.13698 -3.13698,-8.22302 0,-11.36c3.13698,-3.13698 8.22302,-3.13698 11.36,0l40.32,40.32c2.24096,2.2856 2.9038,5.68697 1.68506,8.64679c-1.21875,2.95982 -4.08445,4.90825 -7.28506,4.95321z"></path></g></g></svg>