<svg version="1.1" xmlns="http://www.w3.org/2000/svg" xmlns:xlink="http://www.w3.org/1999/xlink" width="1800px" height="1800px" viewBox="0,0,256,256"><g fill="none" fill-rule="nonzero" stroke="none" stroke-width="1" stroke-linecap="butt" stroke-linejoin="miter" stroke-miterlimit="10" stroke-dasharray="" stroke-dashoffset="0" font-family="none" font-weight="none" font-size="none" text-anchor="none" style="mix-blend-mode: normal"><g transform="translate(-0.00007,0.00014) scale(0.14222,0.14222)"><path d="M1786.11,816.827c-0.656,-2.722 -1.644,-5.309 -2.966,-7.695c0,-0.009 -0.004,-0.017 -0.004,-0.017l-238.77,-432.712c-0.035,-0.065 -0.069,-0.13 -0.104,-0.196l-0.052,-0.091c-0.083,-0.152 -0.183,-0.283 -0.266,-0.43c-0.073,-0.122 -0.152,-0.244 -0.222,-0.365c-0.252,-0.426 -0.504,-0.861 -0.782,-1.283c-0.101,-0.157 -0.2,-0.317 -0.309,-0.469c-0.191,-0.283 -0.404,-0.544 -0.604,-0.813c-0.287,-0.4 -0.578,-0.8 -0.892,-1.187c-0.104,-0.126 -0.204,-0.257 -0.313,-0.383c-0.257,-0.313 -0.535,-0.604 -0.805,-0.9c-0.296,-0.331 -0.587,-0.657 -0.896,-0.974c-0.108,-0.108 -0.218,-0.217 -0.33,-0.326c-0.331,-0.326 -0.679,-0.635 -1.022,-0.943c-0.282,-0.256 -0.556,-0.517 -0.848,-0.761c-0.13,-0.104 -0.256,-0.208 -0.383,-0.313c-0.404,-0.326 -0.821,-0.626 -1.234,-0.93c-0.261,-0.188 -0.504,-0.387 -0.773,-0.57c-0.148,-0.104 -0.305,-0.205 -0.461,-0.309c-0.435,-0.283 -0.883,-0.543 -1.331,-0.804c-0.112,-0.069 -0.226,-0.144 -0.339,-0.209c-0.147,-0.083 -0.278,-0.183 -0.422,-0.261c-0.013,-0.009 -0.03,-0.013 -0.043,-0.021c-0.17,-0.092 -0.344,-0.179 -0.514,-0.266c-0.387,-0.204 -0.791,-0.387 -1.187,-0.574c-0.526,-0.248 -1.052,-0.496 -1.591,-0.717c-0.356,-0.148 -0.727,-0.27 -1.092,-0.4c-0.582,-0.213 -1.161,-0.421 -1.761,-0.6c-0.392,-0.117 -0.791,-0.204 -1.183,-0.305c-0.47,-0.121 -0.931,-0.265 -1.408,-0.36c-0.109,-0.026 -0.222,-0.035 -0.335,-0.052c-0.426,-0.087 -0.861,-0.139 -1.291,-0.2c-0.487,-0.078 -0.975,-0.174 -1.461,-0.222c0,0 -0.03,0 -0.044,-0.004c-0.052,0 -0.104,0 -0.156,-0.009c-0.521,-0.048 -1.052,-0.061 -1.583,-0.087c-0.443,-0.018 -0.882,-0.057 -1.321,-0.057l-0.087,-0.004h-0.087c-0.087,0 -0.17,0 -0.252,0h-585.422v-132.309c46.116,-13.509 79.902,-56.168 79.902,-106.597c0,-61.246 -49.829,-111.075 -111.075,-111.075c-61.246,0 -111.074,49.829 -111.074,111.075c0,50.433 33.794,93.097 79.919,106.605v132.3h-585.485c0,0 -0.061,0 -0.091,0h-0.188h-0.043c-0.644,0 -1.287,0.052 -1.931,0.091c-0.305,0.018 -0.613,0.022 -0.917,0.048c-0.757,0.07 -1.509,0.191 -2.257,0.313c-0.235,0.043 -0.465,0.065 -0.695,0.108c-0.718,0.139 -1.426,0.322 -2.14,0.509c-0.27,0.074 -0.548,0.13 -0.817,0.209c-0.7,0.208 -1.382,0.452 -2.061,0.704c-0.261,0.1 -0.53,0.183 -0.787,0.287c-0.635,0.261 -1.248,0.548 -1.865,0.843c-0.304,0.148 -0.617,0.287 -0.917,0.443c-0.196,0.1 -0.392,0.196 -0.583,0.3c-0.013,0.009 -0.031,0.013 -0.043,0.021c-0.144,0.078 -0.274,0.178 -0.422,0.261c-0.174,0.1 -0.339,0.209 -0.509,0.309c-0.369,0.222 -0.743,0.435 -1.1,0.67c-0.174,0.113 -0.353,0.226 -0.522,0.343c-0.3,0.205 -0.574,0.426 -0.861,0.639c-0.37,0.274 -0.743,0.535 -1.1,0.826c-0.144,0.117 -0.287,0.23 -0.431,0.348c-0.313,0.266 -0.609,0.543 -0.913,0.822c-0.313,0.278 -0.626,0.556 -0.926,0.852c-0.122,0.117 -0.239,0.235 -0.361,0.356c-0.326,0.331 -0.63,0.679 -0.939,1.022c-0.248,0.274 -0.504,0.543 -0.739,0.831c-0.113,0.13 -0.227,0.27 -0.335,0.404c-0.322,0.399 -0.622,0.813 -0.917,1.222c-0.191,0.256 -0.387,0.5 -0.565,0.765c-0.113,0.157 -0.218,0.322 -0.322,0.483c-0.278,0.422 -0.53,0.856 -0.782,1.283c-0.078,0.13 -0.156,0.256 -0.235,0.387c-0.078,0.144 -0.174,0.266 -0.252,0.409l-0.052,0.091c-0.035,0.065 -0.069,0.131 -0.104,0.196l-238.765,432.708c-0.004,0.004 -0.008,0.013 -0.008,0.021c-1.322,2.387 -2.309,4.974 -2.965,7.695c-0.587,2.418 -0.9,4.861 -0.905,7.296c0,0.013 0,0.026 0,0.039c0,148.932 121.162,270.094 270.092,270.094c148.925,0 270.086,-121.162 270.086,-270.094c0,-0.013 -0.004,-0.026 -0.004,-0.039c0,-2.435 -0.313,-4.878 -0.9,-7.296c-0.657,-2.722 -1.648,-5.309 -2.965,-7.695c-0.004,-0.009 -0.004,-0.017 -0.004,-0.017l-213.429,-386.778h532.974v933.441c0,3.356 0.548,6.582 1.53,9.617c-116.218,12.348 -208.584,96.527 -226.327,205.889h-209.363c-17.212,0 -31.165,13.947 -31.165,31.164v156.36c0,17.208 13.952,31.164 31.165,31.164h930.643c17.213,0 31.164,-13.956 31.164,-31.164v-156.36c0,-17.217 -13.951,-31.164 -31.164,-31.164h-209.362c-17.747,-109.361 -110.109,-193.533 -226.323,-205.889c0.982,-3.035 1.53,-6.261 1.53,-9.617v-933.441h532.974l-213.423,386.774c0,0 -0.005,0.013 -0.009,0.021c-1.317,2.387 -2.309,4.974 -2.965,7.695c-0.587,2.418 -0.9,4.861 -0.9,7.296c0,0.013 -0.004,0.026 -0.004,0.039c0,148.932 121.161,270.094 270.086,270.094c148.931,0 270.092,-121.162 270.092,-270.094c0,-0.013 0,-0.026 0,-0.039c-0.005,-2.434 -0.318,-4.877 -0.905,-7.295zM283.072,455.679l186.133,337.319h-372.266zM283.077,1031.927c-103.975,0 -190.355,-76.763 -205.433,-176.601h410.86c-15.077,99.838 -101.457,176.601 -205.427,176.601zM851.245,121.103c0,-26.877 21.869,-48.746 48.746,-48.746c26.878,0 48.746,21.869 48.746,48.746c0,26.882 -21.868,48.755 -48.746,48.755c-26.877,-0.001 -48.746,-21.874 -48.746,-48.755zM1334.155,1727.643h-868.315v-94.031h206.333h455.65h206.332zM1092.567,1571.283h-385.139c18.704,-83.589 97.532,-145.187 192.567,-145.187c95.035,0 173.864,61.598 192.572,145.187zM1703.061,792.998h-372.266l186.133,-337.319zM1516.923,1031.927c-103.97,0 -190.35,-76.763 -205.428,-176.601h410.86c-15.077,99.838 -101.457,176.601 -205.432,176.601z" fill="#20c997"></path><g fill="#000000" font-family="Inter, apple-system, BlinkMacSystemFont, &quot;Helvetica Neue&quot;, &quot;Segoe UI&quot;, &quot;Fira Sans&quot;, Roboto, Oxygen, Ubuntu, &quot;Droid Sans&quot;, Arial, sans-serif" font-weight="400" font-size="16" text-anchor="start"></g><g fill="#000000" font-family="Inter, apple-system, BlinkMacSystemFont, &quot;Helvetica Neue&quot;, &quot;Segoe UI&quot;, &quot;Fira Sans&quot;, Roboto, Oxygen, Ubuntu, &quot;Droid Sans&quot;, Arial, sans-serif" font-weight="400" font-size="16" text-anchor="start"></g><g fill="#000000" font-family="Inter, apple-system, BlinkMacSystemFont, &quot;Helvetica Neue&quot;, &quot;Segoe UI&quot;, &quot;Fira Sans&quot;, Roboto, Oxygen, Ubuntu, &quot;Droid Sans&quot;, Arial, sans-serif" font-weight="400" font-size="16" text-anchor="start"></g><g fill="#000000" font-family="Inter, apple-system, BlinkMacSystemFont, &quot;Helvetica Neue&quot;, &quot;Segoe UI&quot;, &quot;Fira Sans&quot;, Roboto, Oxygen, Ubuntu, &quot;Droid Sans&quot;, Arial, sans-serif" font-weight="400" font-size="16" text-anchor="start"></g><g fill="#000000" font-family="Inter, apple-system, BlinkMacSystemFont, &quot;Helvetica Neue&quot;, &quot;Segoe UI&quot;, &quot;Fira Sans&quot;, Roboto, Oxygen, Ubuntu, &quot;Droid Sans&quot;, Arial, sans-serif" font-weight="400" font-size="16" text-anchor="start"></g><g fill="#000000" font-family="Inter, apple-system, BlinkMacSystemFont, &quot;Helvetica Neue&quot;, &quot;Segoe UI&quot;, &quot;Fira Sans&quot;, Roboto, Oxygen, Ubuntu, &quot;Droid Sans&quot;, Arial, sans-serif" font-weight="400" font-size="16" text-anchor="start"></g></g></g></svg>