<svg width="20" height="33" viewBox="0 0 20 33" fill="none" xmlns="http://www.w3.org/2000/svg">
<g clip-path="url(#clip0_139101_166)">
<g clip-path="url(#clip1_139101_166)">
<path d="M19.8608 16.1628C19.9052 16.207 19.9404 16.2596 19.9644 16.3174C19.9884 16.3753 20.0007 16.4373 20.0007 16.4999C20.0007 16.5626 19.9884 16.6246 19.9644 16.6825C19.9404 16.7403 19.9052 16.7929 19.8608 16.8371L16.8304 19.8676C16.7861 19.9118 16.7335 19.947 16.6757 19.9709C16.6178 19.9949 16.5558 20.0072 16.4932 20.0072C16.4306 20.0072 16.3686 19.9949 16.3108 19.9709C16.2529 19.947 16.2003 19.9118 16.1561 19.8676C16.1118 19.8233 16.0767 19.7707 16.0527 19.7129C16.0288 19.655 16.0164 19.593 16.0164 19.5304C16.0164 19.4678 16.0288 19.4058 16.0527 19.348C16.0767 19.2901 16.1118 19.2376 16.1561 19.1933L18.8504 16.4999L16.1561 13.8066C16.1118 13.7623 16.0767 13.7098 16.0527 13.6519C16.0288 13.5941 16.0164 13.5321 16.0164 13.4695C16.0164 13.4069 16.0288 13.3449 16.0527 13.287C16.0767 13.2292 16.1118 13.1766 16.1561 13.1323C16.2003 13.0881 16.2529 13.0529 16.3108 13.029C16.3686 13.005 16.4306 12.9927 16.4932 12.9927C16.5558 12.9927 16.6178 13.005 16.6757 13.029C16.7335 13.0529 16.7861 13.0881 16.8304 13.1323L19.8608 16.1628ZM0.47607 16.0238H19.5237V16.9761H0.47607V16.0238Z" fill="white"/>
</g>
</g>
<defs>
<clipPath id="clip0_139101_166">
<rect width="20" height="32" fill="white" transform="matrix(-1 0 0 1 20 0.5)"/>
</clipPath>
<clipPath id="clip1_139101_166">
<rect width="20" height="32" fill="white" transform="matrix(-1 0 0 1 20 0.5)"/>
</clipPath>
</defs>
</svg>
