<svg width="20" height="7" viewBox="0 0 20 7" fill="none" xmlns="http://www.w3.org/2000/svg">
<path d="M0.139166 3.1628C0.0948205 3.20703 0.0596368 3.25958 0.0356307 3.31744C0.0116245 3.37529 -0.000732422 3.43731 -0.000732422 3.49994C-0.000732422 3.56258 0.0116245 3.6246 0.0356307 3.68245C0.0596368 3.7403 0.0948205 3.79285 0.139166 3.83709L3.16964 6.86756C3.21392 6.91184 3.26648 6.94696 3.32433 6.97092C3.38217 6.99488 3.44417 7.00721 3.50679 7.00721C3.5694 7.00721 3.6314 6.99488 3.68925 6.97092C3.74709 6.94696 3.79965 6.91184 3.84393 6.86756C3.8882 6.82329 3.92332 6.77073 3.94728 6.71288C3.97124 6.65503 3.98358 6.59303 3.98358 6.53042C3.98358 6.46781 3.97124 6.40581 3.94728 6.34796C3.92332 6.29011 3.8882 6.23755 3.84393 6.19328L1.14964 3.49994L3.84393 0.806611C3.8882 0.762336 3.92332 0.709775 3.94728 0.651928C3.97124 0.594081 3.98358 0.532081 3.98358 0.469468C3.98358 0.406855 3.97124 0.344854 3.94728 0.287007C3.92332 0.22916 3.8882 0.176599 3.84393 0.132325C3.79965 0.0880507 3.74709 0.0529305 3.68925 0.0289694C3.6314 0.00500838 3.5694 -0.00732422 3.50679 -0.00732422C3.44417 -0.00732422 3.38217 0.00500838 3.32433 0.0289694C3.26648 0.0529305 3.21392 0.0880507 3.16964 0.132325L0.139166 3.1628ZM19.5239 3.02375H0.476309V3.97613H19.5239V3.02375Z" fill="white"/>
</svg>
