<svg width="41" height="41" viewBox="0 0 41 41" fill="none" xmlns="http://www.w3.org/2000/svg">
<g clip-path="url(#clip0_139101_69)">
<g clip-path="url(#clip1_139101_69)">
<g clip-path="url(#clip2_139101_69)">
<path d="M40.1895 12.4191C40.3606 12.4191 40.5247 12.3511 40.6457 12.2301C40.7667 12.1091 40.8347 11.945 40.8347 11.7739V1.45131C40.8347 1.28021 40.7667 1.11611 40.6457 0.995115C40.5247 0.874124 40.3606 0.806152 40.1895 0.806152H1.47988C1.30877 0.806152 1.14467 0.874124 1.02368 0.995115C0.902689 1.11611 0.834717 1.28021 0.834717 1.45131V11.7739C0.834717 11.945 0.902689 12.1091 1.02368 12.2301C1.14467 12.3511 1.30877 12.4191 1.47988 12.4191H2.12504V35.6449H1.47988C1.30877 35.6449 1.14467 35.7129 1.02368 35.8339C0.902689 35.9548 0.834717 36.1189 0.834717 36.2901V40.161C0.834717 40.3321 0.902689 40.4962 1.02368 40.6172C1.14467 40.7382 1.30877 40.8062 1.47988 40.8062H40.1895C40.3606 40.8062 40.5247 40.7382 40.6457 40.6172C40.7667 40.4962 40.8347 40.3321 40.8347 40.161V36.2901C40.8347 36.1189 40.7667 35.9548 40.6457 35.8339C40.5247 35.7129 40.3606 35.6449 40.1895 35.6449H39.5444V12.4191H40.1895ZM38.8992 11.1288H2.12504V9.83841H39.5444V11.1288H38.8992ZM33.0928 8.54809V2.09647H35.6734V8.54809H33.0928ZM31.8024 8.54809H29.2218V2.09647H31.8024V8.54809ZM27.9315 8.54809H25.3508V2.09647H27.9315V8.54809ZM24.0605 8.54809H21.4799V2.09647H24.0605V8.54809ZM20.1895 8.54809H17.6089V2.09647H20.1895V8.54809ZM16.3186 8.54809H13.7379V2.09647H16.3186V8.54809ZM12.4476 8.54809H9.86698V2.09647H12.4476V8.54809ZM8.57666 8.54809H5.99601V2.09647H8.57666V8.54809ZM39.5444 8.54809H36.9637V2.09647H39.5444V8.54809ZM4.70569 2.09647V8.54809H2.12504V2.09647H4.70569ZM39.5444 39.5159H2.12504V36.9352H39.5444V39.5159ZM27.9315 35.6449H21.4799V24.032H27.9315V35.6449ZM20.1895 35.6449H13.7379V24.032H20.1895V35.6449ZM38.2541 35.6449H29.2218V23.3868C29.2218 23.2157 29.1538 23.0516 29.0328 22.9306C28.9118 22.8097 28.7477 22.7417 28.5766 22.7417H13.0928C12.9217 22.7417 12.7576 22.8097 12.6366 22.9306C12.5156 23.0516 12.4476 23.2157 12.4476 23.3868V35.6449H3.41537V12.4191H38.2541V35.6449Z" fill="#F57921"/>
<path d="M7.93301 20.1613H9.86849V20.8065C9.86849 20.9776 9.93646 21.1417 10.0575 21.2627C10.1784 21.3837 10.3425 21.4517 10.5137 21.4517H13.0943C13.2654 21.4517 13.4295 21.3837 13.5505 21.2627C13.6715 21.1417 13.7394 20.9776 13.7394 20.8065V19.5162H27.933V20.8065C27.933 20.9776 28.001 21.1417 28.1219 21.2627C28.2429 21.3837 28.407 21.4517 28.5781 21.4517H31.1588C31.3299 21.4517 31.494 21.3837 31.615 21.2627C31.736 21.1417 31.804 20.9776 31.804 20.8065V20.1613H33.7394C33.9105 20.1613 34.0746 20.0934 34.1956 19.9724C34.3166 19.8514 34.3846 19.6873 34.3846 19.5162V15.6452C34.3846 15.4741 34.3166 15.31 34.1956 15.189C34.0746 15.068 33.9105 15 33.7394 15H31.804V14.3549C31.804 14.1838 31.736 14.0197 31.615 13.8987C31.494 13.7777 31.3299 13.7097 31.1588 13.7097H28.5781C28.407 13.7097 28.2429 13.7777 28.1219 13.8987C28.001 14.0197 27.933 14.1838 27.933 14.3549V15.6452H13.7394V14.3549C13.7394 14.1838 13.6715 14.0197 13.5505 13.8987C13.4295 13.7777 13.2654 13.7097 13.0943 13.7097H10.5137C10.3425 13.7097 10.1784 13.7777 10.0575 13.8987C9.93646 14.0197 9.86849 14.1838 9.86849 14.3549V15H7.93301C7.7619 15 7.5978 15.068 7.47681 15.189C7.35582 15.31 7.28784 15.4741 7.28784 15.6452V19.5162C7.28784 19.6873 7.35582 19.8514 7.47681 19.9724C7.5978 20.0934 7.7619 20.1613 7.93301 20.1613ZM33.0943 16.2904V18.871H31.804V16.2904H33.0943ZM29.2233 15H30.5136V20.1613H29.2233V15ZM27.933 16.9355V18.2258H13.7394V16.9355H27.933ZM11.1588 15H12.4491V20.1613H11.1588V15ZM8.57817 16.2904H9.86849V18.871H8.57817V16.2904Z" fill="#F57921"/>
<path d="M18.8986 29.1934H17.6082V31.7741H18.8986V29.1934Z" fill="#F57921"/>
<path d="M24.0586 29.1934H22.7683V31.7741H24.0586V29.1934Z" fill="#F57921"/>
</g>
</g>
</g>
<defs>
<clipPath id="clip0_139101_69">
<rect width="40" height="40" fill="white" transform="translate(0.834717 0.806152)"/>
</clipPath>
<clipPath id="clip1_139101_69">
<rect width="40" height="40" fill="white" transform="translate(0.834717 0.806152)"/>
</clipPath>
<clipPath id="clip2_139101_69">
<rect width="40" height="40" fill="white" transform="translate(0.834717 0.806152)"/>
</clipPath>
</defs>
</svg>
