<svg width="21" height="21" viewBox="0 0 21 21" fill="none" xmlns="http://www.w3.org/2000/svg">
<g clip-path="url(#clip0_139101_14)">
<g clip-path="url(#clip1_139101_14)">
<path d="M10.6294 11.7732C6.60418 11.7732 3.3418 14.9992 3.3418 18.9793C3.3418 19.245 3.5589 19.4601 3.82735 19.4601C4.09598 19.4601 4.31349 19.245 4.31349 18.9793C4.3196 15.5301 7.14126 12.7399 10.6294 12.7341C14.117 12.7399 16.939 15.5301 16.945 18.9793C16.945 19.2449 17.162 19.4601 17.43 19.4601C17.699 19.4601 17.9167 19.245 17.9167 18.9793C17.9165 14.9992 14.6539 11.7732 10.6294 11.7732Z" fill="#F57921"/>
<path d="M10.6281 11.4399C13.2217 11.4393 15.3238 9.36067 15.3245 6.79604C15.3238 4.2312 13.2217 2.15234 10.6281 2.15234C8.03458 2.15234 5.93188 4.23121 5.93188 6.79584C5.93188 9.36048 8.03438 11.4393 10.6281 11.4399ZM10.6281 3.11282C12.685 3.11671 14.3493 4.7619 14.3527 6.79584C14.3493 8.82977 12.685 10.4756 10.6281 10.4795C8.57125 10.4756 6.90693 8.82997 6.90339 6.79604C6.90673 4.7619 8.57125 3.11671 10.6281 3.11282Z" fill="#F57921"/>
</g>
</g>
<defs>
<clipPath id="clip0_139101_14">
<rect width="20" height="20" fill="white" transform="translate(0.754639 0.806152)"/>
</clipPath>
<clipPath id="clip1_139101_14">
<rect width="20" height="20" fill="white" transform="translate(0.754639 0.806152)"/>
</clipPath>
</defs>
</svg>
