<svg width="21" height="21" viewBox="0 0 21 21" fill="none" xmlns="http://www.w3.org/2000/svg">
<g clip-path="url(#clip0_139101_8)">
<g clip-path="url(#clip1_139101_8)">
<g clip-path="url(#clip2_139101_8)">
<path d="M5.86773 1.30615C5.63271 1.30615 5.4422 1.49948 5.4422 1.73797V4.3896C4.71184 4.5837 4.1656 5.25698 4.1656 6.05615C4.1656 7.00496 4.93271 7.78342 5.86773 7.78342C6.80275 7.78342 7.56986 7.00496 7.56986 6.05615C7.56986 5.25698 7.02363 4.5837 6.29326 4.3896V1.73797C6.29326 1.49948 6.10275 1.30615 5.86773 1.30615ZM15.655 1.30615C15.4199 1.30615 15.2294 1.49948 15.2294 1.73797V4.3896C14.4991 4.5837 13.9528 5.25698 13.9528 6.05615C13.9528 7.00496 14.7199 7.78342 15.655 7.78342C16.59 7.78342 17.3571 7.00496 17.3571 6.05615C17.3571 5.25698 16.8109 4.5837 16.0805 4.3896V1.73797C16.0805 1.49948 15.89 1.30615 15.655 1.30615ZM2.88901 2.6016C1.71431 2.6016 0.7547 3.57539 0.7547 4.76744V18.1404C0.7547 19.3324 1.71431 20.3062 2.88901 20.3062H18.6204C19.7951 20.3062 20.7547 19.3324 20.7547 18.1404V4.76744C20.7547 3.57539 19.7951 2.6016 18.6204 2.6016H17.3504C17.1256 2.59837 16.9183 2.80527 16.9183 3.03342C16.9183 3.26157 17.1256 3.46846 17.3504 3.46524H18.6204C19.3375 3.46524 19.9036 4.03972 19.9036 4.76744V8.64706H1.60576V4.76744C1.60576 4.03972 2.17186 3.46524 2.88901 3.46524H4.15896C4.38376 3.46848 4.59114 3.26157 4.59114 3.03342C4.59114 2.80527 4.38376 2.59839 4.15896 2.6016H2.88901ZM7.56321 2.6016C7.32819 2.6016 7.13768 2.79493 7.13768 3.03342C7.13768 3.27192 7.32819 3.46524 7.56321 3.46524H13.9462C14.1812 3.46524 14.3717 3.27192 14.3717 3.03342C14.3717 2.79493 14.1812 2.6016 13.9462 2.6016H7.56321ZM5.86773 5.19251C6.3428 5.19251 6.7188 5.57405 6.7188 6.05615C6.7188 6.53823 6.3428 6.91979 5.86773 6.91979C5.39267 6.91979 5.01667 6.53823 5.01667 6.05615C5.01667 5.57405 5.39267 5.19251 5.86773 5.19251ZM15.655 5.19251C16.13 5.19251 16.506 5.57405 16.506 6.05615C16.506 6.53823 16.13 6.91979 15.655 6.91979C15.1799 6.91979 14.8039 6.53823 14.8039 6.05615C14.8039 5.57405 15.1799 5.19251 15.655 5.19251ZM1.60576 9.5107H19.9036V18.1404C19.9036 18.8681 19.3375 19.4426 18.6204 19.4426H2.88901C2.17186 19.4426 1.60576 18.8681 1.60576 18.1404V9.5107Z" fill="#F57921"/>
</g>
</g>
</g>
<defs>
<clipPath id="clip0_139101_8">
<rect width="20" height="20" fill="white" transform="translate(0.7547 0.806152)"/>
</clipPath>
<clipPath id="clip1_139101_8">
<rect width="20" height="20" fill="white" transform="translate(0.7547 0.806152)"/>
</clipPath>
<clipPath id="clip2_139101_8">
<rect width="20" height="19" fill="white" transform="translate(0.7547 1.30615)"/>
</clipPath>
</defs>
</svg>
