<svg width="21" height="21" viewBox="0 0 21 21" fill="none" xmlns="http://www.w3.org/2000/svg">
<g clip-path="url(#clip0_139101_103)">
<g clip-path="url(#clip1_139101_103)">
<g clip-path="url(#clip2_139101_103)">
<path d="M20.057 5.43116H15.1888C15.4109 5.20516 15.6011 4.94391 15.7395 4.64966C15.8956 4.31841 15.9872 3.94691 15.9872 3.55616C15.9872 2.81116 15.7386 2.12416 15.3051 1.62191C14.873 1.11866 14.2507 0.804658 13.5453 0.806158C12.7721 0.804908 12.1188 1.01716 11.6211 1.43466C11.1223 1.85116 10.7981 2.45666 10.63 3.17191C10.6272 3.18391 10.6249 3.19791 10.6221 3.21041C10.4953 2.99991 10.3442 2.80916 10.1676 2.64641C9.76974 2.27791 9.24649 2.05491 8.66164 2.05616C7.56954 2.05616 6.68509 3.00741 6.68489 4.18116C6.68464 4.48991 6.76229 4.78216 6.89024 5.03916C6.96114 5.18091 7.04834 5.31116 7.14579 5.43116H1.45231C1.06696 5.43116 0.754639 5.76691 0.754639 6.18115V10.1812C0.754639 10.5954 1.06696 10.9312 1.45231 10.9312H2.26627V19.9312C2.26743 20.4152 2.63022 20.8047 3.08022 20.8062H18.429C18.879 20.8047 19.2416 20.4152 19.243 19.9312V10.9312H20.057C20.4423 10.9312 20.7546 10.5954 20.7546 10.1812V6.18115C20.7546 5.76691 20.4423 5.43116 20.057 5.43116ZM11.2379 3.79591C11.259 3.60916 11.2839 3.44916 11.306 3.35691C11.4481 2.75941 11.6956 2.32341 12.0495 2.02641C12.4044 1.73041 12.8846 1.55716 13.5453 1.55616C14.06 1.55766 14.4839 1.77516 14.7935 2.13191C15.1016 2.48866 15.2893 2.98966 15.2895 3.55616C15.2893 3.82116 15.2283 4.07416 15.117 4.31141C14.9507 4.66641 14.6674 4.98216 14.3244 5.20466C14.1788 5.29966 14.0218 5.37316 13.8614 5.43116H11.1232C11.136 5.14541 11.1546 4.78066 11.1811 4.42116C11.1974 4.19966 11.2165 3.98316 11.2379 3.79591ZM7.85024 5.13091C7.70464 5.00016 7.58559 4.84666 7.50559 4.68566C7.42534 4.52366 7.38279 4.35566 7.38254 4.18116C7.38279 3.80041 7.52509 3.45866 7.75699 3.20866C7.98954 2.95941 8.30699 2.80616 8.66164 2.80616C9.08439 2.80716 9.43349 2.95916 9.71369 3.21591C9.99279 3.47266 10.1995 3.84066 10.3 4.27216C10.3174 4.34541 10.3381 4.50166 10.3528 4.67641C10.373 4.91566 10.386 5.19566 10.3939 5.43141H8.32279C8.15164 5.35791 7.98859 5.25616 7.85024 5.13091ZM1.45231 6.18115H10.4058V10.1812H1.45231V6.18115ZM2.99836 20.0192C2.97627 19.9947 2.96394 19.9654 2.96394 19.9312V10.9312H10.4058V20.0562H3.08022C3.04836 20.0562 3.02092 20.0429 2.99836 20.0192ZM18.5453 19.9312C18.5453 19.9654 18.533 19.9947 18.5109 20.0192C18.4883 20.0429 18.4609 20.0562 18.429 20.0562H11.1035V10.9312H18.5453V19.9312ZM20.057 10.1812H11.1035V6.18115H20.057V10.1812Z" fill="#F57921"/>
</g>
</g>
</g>
<defs>
<clipPath id="clip0_139101_103">
<rect width="20" height="20" fill="white" transform="translate(0.754639 0.806152)"/>
</clipPath>
<clipPath id="clip1_139101_103">
<rect width="20" height="20" fill="white" transform="translate(0.754639 0.806152)"/>
</clipPath>
<clipPath id="clip2_139101_103">
<rect width="20" height="20" fill="white" transform="translate(0.754639 0.806152)"/>
</clipPath>
</defs>
</svg>
