<svg width="21" height="21" viewBox="0 0 21 21" fill="none" xmlns="http://www.w3.org/2000/svg">
<g clip-path="url(#clip0_139101_37)">
<g clip-path="url(#clip1_139101_37)">
<g clip-path="url(#clip2_139101_37)">
<path d="M20.432 6.6126C20.5176 6.6126 20.5996 6.5786 20.6601 6.5181C20.7206 6.4576 20.7546 6.37555 20.7546 6.29V1.12873C20.7546 1.04318 20.7206 0.96113 20.6601 0.900634C20.5996 0.840138 20.5176 0.806152 20.432 0.806152H1.07722C0.991666 0.806152 0.909616 0.840138 0.84912 0.900634C0.788625 0.96113 0.754639 1.04318 0.754639 1.12873V6.29C0.754639 6.37555 0.788625 6.4576 0.84912 6.5181C0.909616 6.5786 0.991666 6.6126 1.07722 6.6126H1.3998V18.2255H1.07722C0.991666 18.2255 0.909616 18.2595 0.84912 18.32C0.788625 18.3805 0.754639 18.4626 0.754639 18.5481V20.4836C0.754639 20.5691 0.788625 20.6512 0.84912 20.7117C0.909616 20.7722 0.991666 20.8062 1.07722 20.8062H20.432C20.5176 20.8062 20.5996 20.7722 20.6601 20.7117C20.7206 20.6512 20.7546 20.5691 20.7546 20.4836V18.5481C20.7546 18.4626 20.7206 18.3805 20.6601 18.32C20.5996 18.2595 20.5176 18.2255 20.432 18.2255H20.1095V6.6126H20.432ZM19.7869 5.96745H1.3998V5.32228H20.1095V5.96745H19.7869ZM16.8837 4.67712V1.45131H18.174V4.67712H16.8837ZM16.2385 4.67712H14.9482V1.45131H16.2385V4.67712ZM14.303 4.67712H13.0127V1.45131H14.303V4.67712ZM12.3675 4.67712H11.0772V1.45131H12.3675V4.67712ZM10.432 4.67712H9.14174V1.45131H10.432V4.67712ZM8.49659 4.67712H7.20624V1.45131H8.49659V4.67712ZM6.56109 4.67712H5.27077V1.45131H6.56109V4.67712ZM4.62561 4.67712H3.33528V1.45131H4.62561V4.67712ZM20.1095 4.67712H18.8191V1.45131H20.1095V4.67712ZM2.69012 1.45131V4.67712H1.3998V1.45131H2.69012ZM20.1095 20.161H1.3998V18.8707H20.1095V20.161ZM14.303 18.2255H11.0772V12.4191H14.303V18.2255ZM10.432 18.2255H7.20624V12.4191H10.432V18.2255ZM19.4643 18.2255H14.9482V12.0965C14.9482 12.0109 14.9142 11.9289 14.8537 11.8684C14.7932 11.8079 14.7111 11.7739 14.6256 11.7739H6.88369C6.79814 11.7739 6.71609 11.8079 6.65559 11.8684C6.59509 11.9289 6.56109 12.0109 6.56109 12.0965V18.2255H2.04496V6.6126H19.4643V18.2255Z" fill="#F57921"/>
<path d="M4.30379 10.4836H5.27153V10.8062C5.27153 10.8918 5.30551 10.9738 5.36601 11.0343C5.4265 11.0948 5.50855 11.1288 5.59411 11.1288H6.88444C6.96999 11.1288 7.05204 11.0948 7.11254 11.0343C7.17304 10.9738 7.20699 10.8918 7.20699 10.8062V10.1611H14.3038V10.8062C14.3038 10.8918 14.3378 10.9738 14.3982 11.0343C14.4587 11.0948 14.5408 11.1288 14.6263 11.1288H15.9167C16.0022 11.1288 16.0843 11.0948 16.1448 11.0343C16.2053 10.9738 16.2393 10.8918 16.2393 10.8062V10.4836H17.207C17.2925 10.4836 17.3746 10.4497 17.4351 10.3892C17.4956 10.3287 17.5296 10.2466 17.5296 10.1611V8.22556C17.5296 8.14001 17.4956 8.05796 17.4351 7.99746C17.3746 7.93696 17.2925 7.90296 17.207 7.90296H16.2393V7.58041C16.2393 7.49486 16.2053 7.41281 16.1448 7.35231C16.0843 7.29181 16.0022 7.25781 15.9167 7.25781H14.6263C14.5408 7.25781 14.4587 7.29181 14.3982 7.35231C14.3378 7.41281 14.3038 7.49486 14.3038 7.58041V8.22556H7.20699V7.58041C7.20699 7.49486 7.17304 7.41281 7.11254 7.35231C7.05204 7.29181 6.96999 7.25781 6.88444 7.25781H5.59411C5.50855 7.25781 5.4265 7.29181 5.36601 7.35231C5.30551 7.41281 5.27153 7.49486 5.27153 7.58041V7.90296H4.30379C4.21823 7.90296 4.13618 7.93696 4.07569 7.99746C4.01519 8.05796 3.9812 8.14001 3.9812 8.22556V10.1611C3.9812 10.2466 4.01519 10.3287 4.07569 10.3892C4.13618 10.4497 4.21823 10.4836 4.30379 10.4836ZM16.8844 8.54816V9.83846H16.2393V8.54816H16.8844ZM14.9489 7.90296H15.5941V10.4836H14.9489V7.90296ZM14.3038 8.87071V9.51586H7.20699V8.87071H14.3038ZM5.91669 7.90296H6.56184V10.4836H5.91669V7.90296ZM4.62637 8.54816H5.27153V9.83846H4.62637V8.54816Z" fill="#F57921"/>
<path d="M9.78656 14.9995H9.14136V16.2899H9.78656V14.9995Z" fill="#F57921"/>
<path d="M12.3666 14.9995H11.7214V16.2899H12.3666V14.9995Z" fill="#F57921"/>
</g>
</g>
</g>
<defs>
<clipPath id="clip0_139101_37">
<rect width="20" height="20" fill="white" transform="translate(0.754639 0.806152)"/>
</clipPath>
<clipPath id="clip1_139101_37">
<rect width="20" height="20" fill="white" transform="translate(0.754639 0.806152)"/>
</clipPath>
<clipPath id="clip2_139101_37">
<rect width="20" height="20" fill="white" transform="translate(0.754639 0.806152)"/>
</clipPath>
</defs>
</svg>
