<svg width="41" height="41" viewBox="0 0 41 41" fill="none" xmlns="http://www.w3.org/2000/svg">
<g clip-path="url(#clip0_139101_79)">
<g clip-path="url(#clip1_139101_79)">
<g clip-path="url(#clip2_139101_79)">
<path d="M39.8848 21.5692C40.2305 21.1728 40.4131 20.6601 40.3958 20.1344C40.3785 19.6088 40.1625 19.1093 39.7914 18.7365C39.5908 18.534 39.3501 18.3754 39.0848 18.271C38.8194 18.1667 38.5352 18.1188 38.2503 18.1304C37.9656 18.1411 37.6862 18.21 37.4291 18.3328C37.1722 18.4555 36.943 18.6298 36.756 18.8445L29.2768 27.4726H21.3554L17.1696 11.6103C20.181 10.8677 22.1116 10.8524 22.563 11.0277C22.5678 11.0343 22.5729 11.0405 22.5783 11.0463C22.5884 11.063 22.5976 11.0783 22.609 11.0938C22.6204 11.1091 22.6296 11.1143 22.6397 11.1258C22.6512 11.1394 22.6635 11.1526 22.6764 11.1651C22.6877 11.1764 22.6964 11.1898 22.7084 11.1997C22.7386 11.2262 22.7712 11.2498 22.8057 11.2703L22.8111 11.2738C22.9124 11.3392 23.0298 11.3755 23.1505 11.3783C23.2061 11.3785 23.2614 11.3713 23.3152 11.3571C23.3994 11.3366 23.4786 11.2994 23.5482 11.2479C23.6177 11.1963 23.6763 11.1313 23.7204 11.0568C23.7645 10.9822 23.7931 10.8995 23.8048 10.8138C23.8164 10.7279 23.8106 10.6406 23.788 10.557C23.824 10.3397 24.5882 9.61303 26.1886 9.18502C27.7889 8.75702 28.8153 9.00368 28.9379 9.13902C28.9419 9.15302 28.952 9.16236 28.956 9.17568C29.0195 9.32785 29.1372 9.45106 29.2863 9.52152C29.4355 9.59198 29.6054 9.60468 29.7634 9.55719C29.9213 9.50969 30.0561 9.40536 30.1415 9.26435C30.227 9.12333 30.2572 8.95565 30.2263 8.79368C29.4768 6.00564 27.3469 3.78361 24.2281 2.53092C21.1459 1.37114 17.7841 1.17446 14.5876 1.96691L14.4089 1.30024C14.3631 1.12944 14.2513 0.983824 14.0981 0.89543C13.9449 0.807037 13.7629 0.783105 13.5921 0.8289C13.4212 0.874695 13.2756 0.986465 13.1871 1.13962C13.0987 1.29278 13.0748 1.47478 13.1206 1.64558L13.3 2.31226C10.1347 3.22298 7.32089 5.07362 5.23125 7.619C3.17472 10.243 2.4412 13.2058 3.15939 15.9751C3.16405 15.9978 3.16739 16.0231 3.17272 16.0418C3.2114 16.1866 3.29623 16.315 3.41438 16.4074C3.53254 16.4998 3.67758 16.5512 3.82755 16.5538C3.88297 16.5537 3.93812 16.5463 3.99159 16.5318C4.07583 16.5114 4.15511 16.4743 4.22477 16.4227C4.29443 16.3712 4.35307 16.3063 4.39719 16.2317C4.44133 16.1571 4.47007 16.0744 4.48172 15.9886C4.49338 15.9027 4.48771 15.8154 4.46506 15.7318C4.50106 15.5144 5.26525 14.7878 6.86566 14.3598C8.46607 13.9317 9.49166 14.1778 9.61503 14.3138C9.63736 14.3939 9.6747 14.469 9.72506 14.5351C9.74048 14.5532 9.75696 14.5703 9.7744 14.5864C9.8118 14.6283 9.85437 14.6653 9.9011 14.6964C9.92439 14.711 9.94868 14.7239 9.97379 14.7351C10.0473 14.7702 10.1262 14.7927 10.2072 14.8018C10.2245 14.8018 10.2405 14.8098 10.2579 14.8098C10.3164 14.8098 10.3747 14.8022 10.4312 14.7871C10.5108 14.7643 10.5856 14.7272 10.652 14.6778C10.6718 14.6608 10.6907 14.6427 10.7086 14.6238C10.7477 14.5878 10.7826 14.5475 10.8127 14.5038C10.8284 14.4788 10.8422 14.4528 10.854 14.4258C10.8753 14.3805 10.8916 14.3332 10.9027 14.2844C10.9096 14.255 10.9145 14.2252 10.9174 14.1951C10.921 14.178 10.9237 14.1606 10.9254 14.1431C11.2281 13.7671 12.9172 12.8197 15.884 11.959L19.979 27.4726H9.57635C9.45917 27.4731 9.34418 27.5043 9.24294 27.5633L2.4412 31.5273C1.94751 31.8155 1.58855 32.288 1.4433 32.8408C1.29805 33.3937 1.3784 33.9815 1.66667 34.475C1.95495 34.9686 2.42753 35.3275 2.98047 35.4727C3.53341 35.618 4.1214 35.5376 4.61509 35.2494L10.0965 32.0494L5.66336 39.8062C5.60477 39.9076 5.57396 40.0226 5.57401 40.1398C5.57407 40.257 5.605 40.372 5.66369 40.4734C5.72237 40.5747 5.80673 40.6589 5.9083 40.7174C6.00985 40.7757 6.12501 40.8063 6.24217 40.8062H8.90951C9.02679 40.8063 9.14206 40.7757 9.24368 40.7172C9.34531 40.6586 9.42969 40.5743 9.48833 40.4728L14.631 31.4727H21.0326L23.0298 39.0408C23.0672 39.1831 23.1506 39.3092 23.2672 39.3991C23.3837 39.4891 23.5267 39.538 23.6739 39.5382C23.7316 39.5379 23.7889 39.5302 23.8447 39.5154C24.0156 39.4702 24.1615 39.359 24.2504 39.2062C24.3393 39.0535 24.3639 38.8717 24.3188 38.7008L22.411 31.4727H27.1942L32.3369 40.4728C32.3955 40.5743 32.4799 40.6586 32.5814 40.7172C32.6831 40.7757 32.7983 40.8063 32.9157 40.8062H35.583C35.7002 40.8063 35.8153 40.7757 35.9169 40.7174C36.0184 40.6589 36.1028 40.5747 36.1614 40.4734C36.2202 40.372 36.2511 40.257 36.2511 40.1398C36.2512 40.0226 36.2204 39.9076 36.1618 39.8062L31.3152 31.3233C31.3528 31.3009 31.3881 31.2747 31.4206 31.2454L39.8848 21.5692ZM23.7306 3.76828C25.6699 4.47646 27.2972 5.84565 28.3265 7.635C27.4896 7.58466 26.6502 7.6748 25.8432 7.90167C24.9821 8.11708 24.1683 8.48955 23.4425 9.00036C23.3972 9.03436 23.3639 9.06702 23.3225 9.10102C22.4434 6.51201 20.7059 4.30096 18.3979 2.83426C20.2197 2.7916 22.0319 3.109 23.7306 3.76828ZM6.51957 13.0757C5.70589 13.2831 4.93367 13.6281 4.23632 14.0957C4.23081 12.029 4.95588 10.0266 6.28351 8.44235C7.41773 7.03118 8.81814 5.85648 10.4052 4.98496C10.1122 5.49734 9.87034 6.03727 9.68305 6.59698C9.04823 8.61722 8.9175 10.7621 9.30229 12.8444C8.36853 12.7377 7.42287 12.8163 6.51957 13.0757ZM10.626 12.6858C10.2654 10.8007 10.3756 8.85592 10.9467 7.02365C11.6009 5.0903 12.7851 3.80494 14.2809 3.40361C17.2089 2.62026 20.5331 5.36164 22.0989 9.63903C20.996 9.52903 19.1835 9.68237 16.1794 10.4877C14.6059 10.8913 13.0739 11.442 11.6036 12.1324C11.2667 12.2969 10.9403 12.4817 10.626 12.6858ZM8.52275 39.4728H7.38913L11.9636 31.4727H13.0972L8.52275 39.4728ZM14.2442 30.1393H10.91C10.7929 30.1397 10.6778 30.171 10.5766 30.23L3.94558 34.0967C3.75759 34.2068 3.53355 34.2377 3.32277 34.1826C3.11199 34.1275 2.93173 33.991 2.82163 33.803C2.71154 33.6151 2.68064 33.3911 2.73573 33.1804C2.79081 32.9697 2.92738 32.7895 3.11538 32.6793L9.75707 28.806H20.3285L20.6799 30.1393H14.2442ZM21.7075 28.806H29.5814C29.677 28.8061 29.7716 28.7855 29.8585 28.7458C29.9455 28.7062 30.023 28.6482 30.0855 28.576L37.7642 19.7179C37.8306 19.6407 37.9123 19.5783 38.0042 19.5344C38.096 19.4905 38.196 19.4663 38.2976 19.4631C38.4421 19.4582 38.5849 19.4954 38.7085 19.5704C38.832 19.6455 38.9308 19.755 38.9929 19.8856C39.0549 20.0161 39.0773 20.162 39.0575 20.3051C39.0376 20.4482 38.9764 20.5824 38.8811 20.6912L30.6124 30.1393H22.0596L21.7075 28.806ZM33.3024 39.4728L28.7306 31.4727H29.8642L34.436 39.4728H33.3024Z" fill="#F57921"/>
</g>
</g>
</g>
<defs>
<clipPath id="clip0_139101_79">
<rect width="40" height="40" fill="white" transform="translate(0.884766 0.806152)"/>
</clipPath>
<clipPath id="clip1_139101_79">
<rect width="40" height="40" fill="white" transform="translate(0.884766 0.806152)"/>
</clipPath>
<clipPath id="clip2_139101_79">
<rect width="39.0244" height="40" fill="white" transform="translate(1.37256 0.806152)"/>
</clipPath>
</defs>
</svg>
