<svg width="41" height="41" viewBox="0 0 41 41" fill="none" xmlns="http://www.w3.org/2000/svg">
<g clip-path="url(#clip0_139101_118)">
<g clip-path="url(#clip1_139101_118)">
<g clip-path="url(#clip2_139101_118)">
<path d="M39.4694 10.0562H29.7331C30.1773 9.60416 30.5577 9.08166 30.8345 8.49316C31.1466 7.83066 31.3298 7.08766 31.3298 6.30616C31.3298 4.81616 30.8326 3.44216 29.9656 2.43766C29.1014 1.43116 27.8568 0.803163 26.4461 0.806163C24.8996 0.803663 23.5931 1.22816 22.5977 2.06316C21.6 2.89616 20.9517 4.10716 20.6154 5.53766C20.6098 5.56166 20.6052 5.58966 20.5996 5.61466C20.3461 5.19366 20.0438 4.81216 19.6907 4.48666C18.8949 3.74966 17.8484 3.30366 16.6787 3.30616C14.4945 3.30616 12.7256 5.20866 12.7252 7.55616C12.7247 8.17366 12.88 8.75816 13.1359 9.27216C13.2777 9.55566 13.4521 9.81616 13.647 10.0562H2.2601C1.4894 10.0562 0.864746 10.7277 0.864746 11.5562V19.5562C0.864746 20.3847 1.4894 21.0562 2.2601 21.0562H3.88801V39.0562C3.89033 40.0242 4.61591 40.8032 5.51591 40.8062H36.2135C37.1135 40.8032 37.8387 40.0242 37.8414 39.0562V21.0562H39.4694C40.24 21.0562 40.8647 20.3847 40.8647 19.5562V11.5562C40.8647 10.7277 40.24 10.0562 39.4694 10.0562ZM21.8312 6.78566C21.8735 6.41216 21.9233 6.09216 21.9675 5.90766C22.2517 4.71266 22.7466 3.84066 23.4545 3.24666C24.1642 2.65466 25.1247 2.30816 26.4461 2.30616C27.4754 2.30916 28.3233 2.74416 28.9424 3.45766C29.5587 4.17116 29.934 5.17316 29.9345 6.30616C29.934 6.83616 29.8121 7.34216 29.5894 7.81666C29.2568 8.52666 28.6903 9.15816 28.0042 9.60316C27.7131 9.79316 27.3991 9.94016 27.0782 10.0562H21.6019C21.6275 9.48466 21.6647 8.75516 21.7177 8.03616C21.7503 7.59316 21.7884 7.16016 21.8312 6.78566ZM15.0559 9.45566C14.7647 9.19416 14.5266 8.88716 14.3666 8.56516C14.2061 8.24116 14.121 7.90516 14.1205 7.55616C14.121 6.79466 14.4056 6.11116 14.8694 5.61116C15.3345 5.11266 15.9694 4.80616 16.6787 4.80616C17.5242 4.80816 18.2224 5.11216 18.7828 5.62566C19.341 6.13916 19.7545 6.87516 19.9554 7.73816C19.9903 7.88466 20.0317 8.19716 20.061 8.54666C20.1014 9.02516 20.1275 9.58516 20.1433 10.0567H16.001C15.6587 9.90966 15.3326 9.70616 15.0559 9.45566ZM2.2601 11.5562H20.167V19.5562H2.2601V11.5562ZM5.35219 39.2322C5.30801 39.1832 5.28335 39.1247 5.28335 39.0562V21.0562H20.167V39.3062H5.51591C5.45219 39.3062 5.39731 39.2797 5.35219 39.2322ZM36.4461 39.0562C36.4461 39.1247 36.4214 39.1832 36.3773 39.2322C36.3321 39.2797 36.2773 39.3062 36.2135 39.3062H21.5624V21.0562H36.4461V39.0562ZM39.4694 19.5562H21.5624V11.5562H39.4694V19.5562Z" fill="#F57921"/>
</g>
</g>
</g>
<defs>
<clipPath id="clip0_139101_118">
<rect width="40" height="40" fill="white" transform="translate(0.864746 0.806152)"/>
</clipPath>
<clipPath id="clip1_139101_118">
<rect width="40" height="40" fill="white" transform="translate(0.864746 0.806152)"/>
</clipPath>
<clipPath id="clip2_139101_118">
<rect width="40" height="40" fill="white" transform="translate(0.864746 0.806152)"/>
</clipPath>
</defs>
</svg>
